<?xml version="1.0" standalone="no"?><!DOCTYPE svg PUBLIC "-//W3C//DTD SVG 1.1//EN" "http://www.w3.org/Graphics/SVG/1.1/DTD/svg11.dtd"><svg t="1607437935132" class="icon" viewBox="0 0 1024 1024" version="1.1" xmlns="http://www.w3.org/2000/svg" p-id="19268" width="13" height="13" xmlns:xlink="http://www.w3.org/1999/xlink"><defs><style type="text/css"></style></defs><path d="M938.755 698.284c-0.03 9.77-7.95 17.69-17.72 17.72h-818.06c-9.77-0.03-17.69-7.95-17.72-17.72v-276.24c0.03-9.77 7.95-17.69 17.72-17.72h818.05c9.77 0.03 17.69 7.95 17.72 17.72v276.24z" fill="#FFFBF1" p-id="19269"></path><path d="M102.975 737.254c-21.46-0.06-38.91-17.51-38.97-38.91v-276.3c0.06-21.46 17.51-38.92 38.91-38.97h818.11c21.46 0.06 38.91 17.51 38.97 38.92v276.35c-0.06 21.4-17.51 38.86-38.91 38.91h-818.11z m835.78-38.97h0.14-0.14z m-832.26-3.53h811v-269.18h-811v269.18z" fill="#363432" p-id="19270"></path><path d="M737.325 618.684a7.08 7.08 0 0 1-7.08 7.08h-436.49a7.08 7.08 0 0 1 0-14.16h436.48c3.92 0 7.09 3.17 7.09 7.08z" fill="#FFFBF1" p-id="19271"></path><path d="M730.235 639.934h-436.47c-11.72 0-21.25-9.53-21.25-21.25s9.53-21.25 21.25-21.25h436.48c11.72 0 21.25 9.53 21.25 21.25-0.01 11.71-9.54 21.25-21.26 21.25z m0-14.17h0.14-0.14z" fill="#363432" p-id="19272"></path><path d="M294.195 619.574h435.6v201.87h-435.6z" fill="#EF7E20" p-id="19273"></path><path d="M729.805 835.614h-435.6c-7.82 0-14.17-6.34-14.17-14.17v-201.86c0-7.83 6.34-14.17 14.17-14.17h435.6c7.82 0 14.17 6.34 14.17 14.17v201.87c-0.01 7.82-6.35 14.16-14.17 14.16z m-421.44-28.33h407.27v-173.54h-407.27v173.54z" fill="#363432" p-id="19274"></path><path d="M770.525 406.184c-0.03 9.77-7.94 17.68-17.71 17.72h-481.64c-9.77-0.04-17.68-7.95-17.71-17.72v-178.82c0.03-9.77 7.94-17.68 17.71-17.72h481.65c9.77 0.03 17.69 7.95 17.72 17.72l-0.02 178.82z" fill="#FFFBF1" p-id="19275"></path><path d="M271.175 445.144c-21.46-0.1-38.89-17.54-38.96-38.92v-178.87c0.06-21.43 17.49-38.87 38.87-38.97h481.74c21.47 0.1 38.91 17.54 38.97 38.92l-0.01 178.87v0.06c-0.06 21.37-17.49 38.82-38.87 38.92h-481.74z m499.35-38.97h0.14-0.14z m-495.81-175.29v171.76h474.56l0.01-171.76h-474.57zM685.965 764.784h-347.93c-3.92 0-7.08-3.17-7.08-7.08s3.17-7.08 7.08-7.08h347.94c3.92 0 7.08 3.17 7.08 7.08s-3.17 7.08-7.09 7.08zM685.965 719.914h-347.93c-3.92 0-7.08-3.17-7.08-7.08a7.08 7.08 0 0 1 7.08-7.08h347.94c3.92 0 7.08 3.17 7.08 7.08 0 3.92-3.17 7.08-7.09 7.08zM685.965 675.054h-347.93c-3.92 0-7.08-3.17-7.08-7.08a7.08 7.08 0 0 1 7.08-7.08h347.94c3.92 0 7.08 3.17 7.08 7.08s-3.17 7.08-7.09 7.08zM685.965 630.204h-347.93c-3.92 0-7.08-3.17-7.08-7.08a7.08 7.08 0 0 1 7.08-7.08h347.94c3.92 0 7.08 3.17 7.08 7.08s-3.17 7.08-7.09 7.08z" fill="#363432" p-id="19276"></path><path d="M921.025 404.424h-818.05c-9.77 0.03-17.69 7.95-17.72 17.72v109.77h853.5v-109.77c-0.04-9.77-7.95-17.69-17.73-17.72z" fill="#E9E7DF" p-id="19277"></path><path d="M938.755 553.164H85.245c-11.74 0-21.25-9.52-21.25-21.25v-109.77c0.06-21.43 17.5-38.87 38.88-38.97h818.24c21.38 0.1 38.82 17.54 38.88 38.92v109.83c0.01 11.72-9.51 21.24-21.24 21.24z m-832.26-42.5h811v-85h-811v85z" fill="#363432" p-id="19278"></path><path d="M138.175 465.824m-13.67 0a13.67 13.67 0 1 0 27.34 0 13.67 13.67 0 1 0-27.34 0Z" fill="#EF7E20" p-id="19279"></path><path d="M138.175 486.564c-11.44 0-20.75-9.31-20.75-20.75s9.31-20.75 20.75-20.75c11.45 0 20.76 9.31 20.76 20.75s-9.32 20.75-20.76 20.75z m0-27.33c-3.63 0-6.58 2.96-6.58 6.58s2.95 6.58 6.58 6.58 6.59-2.96 6.59-6.58-2.96-6.58-6.59-6.58z" fill="#363432" p-id="19280"></path><path d="M186.045 465.824m-13.67 0a13.67 13.67 0 1 0 27.34 0 13.67 13.67 0 1 0-27.34 0Z" fill="#EF7E20" p-id="19281"></path><path d="M186.045 486.564c-11.45 0-20.76-9.31-20.76-20.75s9.31-20.75 20.76-20.75c11.44 0 20.75 9.31 20.75 20.75s-9.31 20.75-20.75 20.75z m0-27.33c-3.63 0-6.59 2.96-6.59 6.58s2.96 6.58 6.59 6.58 6.58-2.96 6.58-6.58-2.95-6.58-6.58-6.58z" fill="#363432" p-id="19282"></path><path d="M233.895 465.824m-13.67 0a13.67 13.67 0 1 0 27.34 0 13.67 13.67 0 1 0-27.34 0Z" fill="#EF7E20" p-id="19283"></path><path d="M233.895 486.564c-11.45 0-20.76-9.31-20.76-20.75s9.31-20.75 20.76-20.75c11.44 0 20.75 9.31 20.75 20.75s-9.31 20.75-20.75 20.75z m0-27.33c-3.63 0-6.59 2.96-6.59 6.58s2.96 6.58 6.59 6.58 6.58-2.96 6.58-6.58-2.95-6.58-6.58-6.58z" fill="#363432" p-id="19284"></path><path d="M644.065 268.944h-349.9v135.48l435.6-3.53v-46.22l-85.7-85.73z" fill="#EF7E20" p-id="19285"></path><path d="M294.165 418.584c-3.74 0-7.33-1.48-9.97-4.11a14.173 14.173 0 0 1-4.19-10.06v-135.47c0-7.83 6.34-14.17 14.17-14.17h349.9c3.76 0 7.36 1.49 10.02 4.15l85.7 85.73c2.66 2.66 4.15 6.25 4.15 10.02v46.22c0 7.77-6.27 14.1-14.05 14.17l-435.6 3.53c-0.05-0.01-0.08-0.01-0.13-0.01z m14.17-135.47v107.03l407.27-3.31v-26.3l-77.41-77.43h-329.86z" fill="#363432" p-id="19286"></path><path d="M644.065 354.674h85.73l-85.73-85.73v85.73z" fill="#FFFBF1" p-id="19287"></path><path d="M729.805 368.834h-85.73c-7.82 0-14.17-6.34-14.17-14.17v-85.73c0-5.73 3.45-10.9 8.74-13.09 5.28-2.23 11.39-0.98 15.44 3.07l85.73 85.73a14.174 14.174 0 0 1 3.07 15.44 14.142 14.142 0 0 1-13.08 8.75z m-71.57-28.33h37.37l-37.37-37.37v37.37z" fill="#363432" p-id="19288"></path></svg>